<?xml version="1.0" encoding="utf-8"?>
<!-- Generator: Adobe Illustrator 22.1.0, SVG Export Plug-In . SVG Version: 6.00 Build 0)  -->
<svg version="1.1" id="Layer_1" xmlns="http://www.w3.org/2000/svg" xmlns:xlink="http://www.w3.org/1999/xlink" x="0px" y="0px"
	 width="227px"
	 viewBox="0 0 226.8 62.3" style="enable-background:new 0 0 226.8 62.3;" xml:space="preserve">
<style type="text/css">
	.st0{fill:#F15A29;}
	.st1{fill:#FFFFFF;}
</style>
<g>
	<g>
		<path class="st0" d="M50.8,24.7c3,1.6,4.5,3.8,4.5,6.7v1.3c0,2.7-0.8,4.8-2.5,6.2c-1.7,1.4-4,2.1-6.9,2.1c-2.9,0-5.1-0.7-6.9-2.1
			c-1.7-1.4-2.5-3.4-2.5-6.2v-1.9h7.1v2.1c0,1.1,0.8,1.8,2.3,1.8s2.2-0.6,2.2-1.8v-0.9c0-0.9-0.5-1.6-1.4-2.2l-5.7-3
			c-3-1.6-4.5-3.9-4.5-6.7v-1c0-2.7,0.8-4.8,2.4-6.2s3.9-2.1,6.7-2.1s5.1,0.7,6.7,2.1c1.6,1.4,2.4,3.4,2.4,6.2v1.4h-7v-1.6
			c0-1.3-0.7-1.9-2.1-1.9c-1.4,0-2.1,0.7-2.1,1.9v0.8c0,0.8,0.5,1.5,1.5,1.9L50.8,24.7z"/>
	</g>
	<g>
		<path class="st0" d="M64.9,32.5c0,1.4,0.8,1.9,2.4,1.9c1.6,0,2.4-0.7,2.4-1.9v-2.3h7.1v2.2c0,2.7-0.9,4.9-2.6,6.4
			c-1.7,1.5-4,2.2-7,2.2c-2.9,0-5.3-0.7-7-2.2c-1.7-1.5-2.6-3.5-2.6-6.4v-13c0-2.7,0.9-4.9,2.6-6.4c1.7-1.5,4-2.2,7-2.2
			c2.9,0,5.3,0.7,7,2.2c1.7,1.5,2.6,3.5,2.6,6.4V28H64.9V32.5z M69.8,19.1c0-1.4-0.8-1.9-2.5-1.9c-1.6,0-2.4,0.7-2.4,1.9v3.2h4.9
			C69.8,22.3,69.8,19.1,69.8,19.1z"/>
	</g>
	<g>
		<path class="st0" d="M97.9,36.5h7.3V44h-7.3V36.5z"/>
	</g>
	<g>
		<path class="st0" d="M103.7,32.4v-3h7.2v3c0,2.9-0.8,4.9-2.5,6.4c-1.7,1.5-4,2.2-6.9,2.2s-5.1-0.7-6.9-2.2
			c-1.7-1.5-2.5-3.5-2.5-6.4v-13c0-2.9,0.8-4.9,2.5-6.4c1.7-1.5,4-2.2,6.9-2.2s5.1,0.7,6.9,2.2c1.7,1.5,2.5,3.5,2.5,6.4v3h-7.2v-3
			c0-1.4-0.7-1.9-2.2-1.9s-2.2,0.7-2.2,1.9v13c0,1.4,0.7,1.9,2.2,1.9S103.7,33.6,103.7,32.4z"/>
	</g>
	<g>
		<path class="st0" d="M133.2,11.2v29.2h-6.9v-3c-0.2,0.8-0.8,1.6-1.8,2.2c-0.9,0.7-2.3,0.9-4,0.9c-2.2,0-3.8-0.7-4.9-1.9
			c-1-1.3-1.6-3-1.6-5V11.2h7.3v20.9c0,0.7,0.2,1.3,0.6,1.6c0.3,0.3,0.9,0.6,1.6,0.6c0.7,0,1.3-0.2,1.6-0.6c0.3-0.3,0.6-0.9,0.6-1.6
			V11.2H133.2z"/>
	</g>
	<g>
		<path class="st0" d="M148.8,40.4l-4.2-13v13h-7.3V11.2h7.3V23l4.2-11.8h7.3L151.2,25l5.3,15.4L148.8,40.4L148.8,40.4z"/>
	</g>
	<g>
		<path class="st0" d="M189.2,11.2v29.2h-6.9v-3c-0.2,0.8-0.8,1.6-1.8,2.2c-0.9,0.7-2.3,0.9-4,0.9c-2.2,0-3.8-0.7-4.9-1.9
			c-1-1.3-1.6-3-1.6-5V11.2h7.3v20.9c0,0.7,0.2,1.3,0.6,1.6c0.3,0.3,0.9,0.6,1.6,0.6c0.7,0,1.3-0.2,1.6-0.6c0.3-0.3,0.6-0.9,0.6-1.6
			V11.2H189.2z"/>
	</g>
	<g>
		<path class="st0" d="M219.3,19.1h-26.2v-7.9h33.7v0.3C226.8,15.8,223.4,19.1,219.3,19.1z"/>
	</g>
	<g>
		<path class="st1" d="M213.2,29.7h-20.1v-7.9h27.7v0.3C220.7,26.4,217.3,29.7,213.2,29.7z"/>
	</g>
	<g>
		<path class="st0" d="M206.9,40.4h-13.8v-7.9h21.4v0.3C214.5,37,211,40.4,206.9,40.4z"/>
	</g>
	<g>
		<path class="st0" d="M0,11.5v-0.3h33.7v7.9H7.5C3.3,19.1,0,15.7,0,11.5z"/>
	</g>
	<g>
		<path class="st1" d="M6.1,22.2v-0.3h27.7v7.9H13.6C9.4,29.7,6.1,26.3,6.1,22.2z"/>
	</g>
	<g>
		<path class="st0" d="M12.3,32.8v-0.3h21.4v7.9H19.9C15.8,40.4,12.3,36.9,12.3,32.8z"/>
	</g>
	<path class="st0" d="M80.8,0L80.8,0c-4.1,0-7.4,3.3-7.4,7.4h7.4v32.9h7.3V0H80.8z"/>
	<path class="st0" d="M167.1,0L167.1,0h-7.3v40.4h7.3V7.5V7.4h7.5C174.7,3.3,171.2,0,167.1,0z"/>
	<g>
		<g>
			<path class="st1" d="M44.7,58.9c0,1.1-0.3,1.9-1,2.5c-0.7,0.6-1.6,0.9-2.7,0.9c-1.1,0-2.1-0.3-2.7-0.9c-0.7-0.6-1-1.4-1-2.5v-5.1
				c0-1.1,0.3-1.9,1-2.5c0.7-0.6,1.6-0.9,2.7-0.9c1.1,0,2.1,0.3,2.7,0.9c0.7,0.6,1,1.4,1,2.5V58.9z M41.8,53.7
				c0-0.2-0.1-0.5-0.2-0.6c-0.2-0.1-0.3-0.2-0.7-0.2s-0.5,0.1-0.7,0.2C40,53.3,40,53.5,40,53.7v5.1c0,0.2,0.1,0.5,0.2,0.6
				c0.1,0.1,0.3,0.2,0.7,0.2s0.5-0.1,0.7-0.2c0.2-0.1,0.2-0.3,0.2-0.6V53.7z"/>
			<path class="st1" d="M54.2,50.5h1.1l0.7-2.1h2.1v2.1h1.7v2.4h-1.7v5.8c0,0.5,0.2,0.7,0.7,0.7c0.2,0,0.5,0,0.6-0.1
				c0.2,0,0.3-0.1,0.3-0.1l0.1-0.1v2.6c-0.5,0.2-1,0.3-1.7,0.3c-1.9,0-3-1-3-3.2v-5.9h-1L54.2,50.5L54.2,50.5z"/>
			<path class="st1" d="M77,58.9c0,1.1-0.3,1.9-1,2.5c-0.7,0.6-1.6,0.9-2.7,0.9c-1.1,0-2.1-0.3-2.7-0.9c-0.7-0.6-1-1.4-1-2.5v-5.1
				c0-1.1,0.3-1.9,1-2.5c0.7-0.6,1.6-0.9,2.7-0.9c1.1,0,2.1,0.3,2.7,0.9c0.7,0.6,1,1.4,1,2.5C77,53.7,77,58.9,77,58.9z M74.2,53.7
				c0-0.2-0.1-0.5-0.2-0.6c-0.2-0.1-0.3-0.2-0.7-0.2c-0.3,0-0.5,0.1-0.7,0.2c-0.2,0.1-0.2,0.3-0.2,0.6v5.1c0,0.2,0.1,0.5,0.2,0.6
				c0.1,0.1,0.3,0.2,0.7,0.2c0.3,0,0.5-0.1,0.7-0.2s0.2-0.3,0.2-0.6V53.7z"/>
			<path class="st1" d="M103.5,62l-1.6-5.1V62H99V47.4h2.9v7.7l1.6-4.6h2.9l-1.9,5.4l2.1,6.1H103.5z"/>
			<path class="st1" d="M123.6,50.5V62h-2.7v-1.1c-0.1,0.3-0.3,0.6-0.7,0.9c-0.3,0.2-0.9,0.3-1.6,0.3c-0.8,0-1.5-0.2-1.9-0.8
				c-0.5-0.5-0.7-1.1-0.7-1.9v-8.8h2.9v8.2c0,0.2,0.1,0.5,0.2,0.7c0.1,0.1,0.3,0.2,0.7,0.2c0.2,0,0.5-0.1,0.7-0.2
				c0.1-0.1,0.2-0.3,0.2-0.7v-8.2C120.6,50.5,123.6,50.5,123.6,50.5z"/>
			<path class="st1" d="M133.6,53.6c0-1.1,0.3-1.9,1-2.5c0.7-0.6,1.6-0.8,2.7-0.8s2.1,0.2,2.7,0.8s1,1.4,1,2.5V62h-2.7V61
				c0,0.1-0.1,0.2-0.1,0.3c-0.1,0.1-0.2,0.2-0.6,0.5c-0.3,0.2-0.7,0.2-1.1,0.2c-0.9,0-1.6-0.2-2.1-0.7c-0.5-0.5-0.8-1.1-0.8-2.1
				v-0.6c0-0.7,0.2-1.4,0.6-1.7c0.3-0.5,0.9-0.8,1.7-1.1l2.4-0.9v-1.4c0-0.5-0.2-0.7-0.8-0.7c-0.6,0-0.9,0.2-0.9,0.7v0.9h-2.9v-0.9
				H133.6z M136.5,59.1c0,0.5,0.3,0.8,0.9,0.8c0.6,0,0.9-0.2,0.9-0.8v-1.6l-1,0.5c-0.2,0.1-0.5,0.2-0.6,0.3
				c-0.1,0.1-0.1,0.3-0.1,0.7v0.1H136.5z"/>
			<path class="st1" d="M150.9,50.5h1.1v-0.1c0-2.2,1.1-3.3,3.4-3.3c0.3,0,0.7,0,1,0.1v2.3c-0.2,0-0.5,0-0.6,0c-0.7,0-1,0.3-1,0.9
				v0.2h1.4V53h-1.4v9H152v-9h-1.1V50.5z"/>
			<path class="st1" d="M173.3,58.9c0,1.1-0.3,1.9-1,2.5c-0.7,0.6-1.6,0.9-2.7,0.9s-2.1-0.3-2.7-0.9c-0.7-0.6-1-1.4-1-2.5v-5.1
				c0-1.1,0.3-1.9,1-2.5c0.7-0.6,1.6-0.9,2.7-0.9s2.1,0.3,2.7,0.9c0.7,0.6,1,1.4,1,2.5V58.9z M168.8,49.5H167v-1.8h1.8V49.5z
				 M170.4,53.7c0-0.2-0.1-0.5-0.2-0.6c-0.2-0.1-0.3-0.2-0.7-0.2c-0.3,0-0.5,0.1-0.7,0.2c-0.2,0.1-0.2,0.3-0.2,0.6v5.1
				c0,0.2,0.1,0.5,0.2,0.6c0.2,0.1,0.3,0.2,0.7,0.2c0.3,0,0.5-0.1,0.7-0.2c0.2-0.1,0.2-0.3,0.2-0.6V53.7z M172.2,49.5h-1.8v-1.8h1.8
				V49.5z"/>
			<path class="st1" d="M188.6,53.4c-0.2-0.1-0.6-0.1-0.8-0.1c-0.5,0-0.7,0.1-0.9,0.3c-0.2,0.2-0.3,0.6-0.3,1V62h-2.9V50.5h2.7v1.6
				c0-0.5,0.2-0.8,0.6-1.1c0.3-0.3,0.8-0.6,1.4-0.6c0.1,0,0.3,0,0.5,0v3H188.6z"/>
		</g>
	</g>
</g>
</svg>
