<?xml version="1.0" encoding="utf-8"?>
<!-- Generator: Adobe Illustrator 22.1.0, SVG Export Plug-In . SVG Version: 6.00 Build 0)  -->
<svg version="1.1" id="Layer_1" xmlns="http://www.w3.org/2000/svg" xmlns:xlink="http://www.w3.org/1999/xlink" x="0px" y="0px"
	 width="227px"
	 height="100px"
	 viewBox="0 0 226.8 70.9" style="enable-background:new 0 0 226.8 70.9;" xml:space="preserve">
<style type="text/css">
	.st0{fill:#F15A29;}
	.st1{fill:#58595B;}
</style>
<g>
	<g>
		<path class="st0" d="M58.6,29.9c2.6,1.4,3.9,3.3,3.9,5.9v1.1c0,2.4-0.7,4.2-2.2,5.4s-3.5,1.8-6,1.8s-4.5-0.6-6-1.8s-2.2-3-2.2-5.4
			v-1.7h6.2V37c0,1,0.7,1.6,2,1.6s1.9-0.5,1.9-1.6v-0.8c0-0.8-0.4-1.4-1.2-1.9l-5-2.6c-2.6-1.4-3.9-3.4-3.9-5.9v-0.9
			c0-2.4,0.7-4.2,2.1-5.4c1.4-1.2,3.4-1.8,5.9-1.8s4.5,0.6,5.9,1.8c1.4,1.2,2.1,3,2.1,5.4v1.2H56v-1.4c0-1.1-0.6-1.7-1.8-1.7
			s-1.8,0.6-1.8,1.7v0.7c0,0.7,0.4,1.3,1.3,1.7L58.6,29.9z"/>
	</g>
	<g>
		<path class="st0" d="M71,36.7c0,1.2,0.7,1.7,2.1,1.7s2.1-0.6,2.1-1.7v-2h6.2v1.9c0,2.4-0.8,4.3-2.3,5.6s-3.5,1.9-6.1,1.9
			c-2.5,0-4.6-0.6-6.1-1.9c-1.5-1.3-2.3-3.1-2.3-5.6V25.2c0-2.4,0.8-4.3,2.3-5.6c1.5-1.3,3.5-1.9,6.1-1.9c2.5,0,4.6,0.6,6.1,1.9
			s2.3,3.1,2.3,5.6v7.6H71V36.7z M75.3,25c0-1.2-0.7-1.7-2.2-1.7c-1.4,0-2.1,0.6-2.1,1.7v2.8h4.3C75.3,27.8,75.3,25,75.3,25z"/>
	</g>
	<g>
		<path class="st0" d="M99.8,40.2h6.4v6.6h-6.4V40.2z"/>
	</g>
	<g>
		<path class="st0" d="M104.9,36.6V34h6.3v2.6c0,2.5-0.7,4.3-2.2,5.6s-3.5,1.9-6,1.9s-4.5-0.6-6-1.9c-1.5-1.3-2.2-3.1-2.2-5.6V25.2
			c0-2.5,0.7-4.3,2.2-5.6c1.5-1.3,3.5-1.9,6-1.9s4.5,0.6,6,1.9s2.2,3.1,2.2,5.6v2.6h-6.3v-2.6c0-1.2-0.6-1.7-1.9-1.7
			s-1.9,0.6-1.9,1.7v11.4c0,1.2,0.6,1.7,1.9,1.7S104.9,37.7,104.9,36.6z"/>
	</g>
	<g>
		<path class="st0" d="M130.7,18.1v25.5h-6V41c-0.2,0.7-0.7,1.4-1.6,1.9c-0.8,0.6-2,0.8-3.5,0.8c-1.9,0-3.3-0.6-4.3-1.7
			c-0.9-1.1-1.4-2.6-1.4-4.4V18.1h6.4v18.3c0,0.6,0.2,1.1,0.5,1.4c0.3,0.3,0.8,0.5,1.4,0.5s1.1-0.2,1.4-0.5s0.5-0.8,0.5-1.4V18.1
			H130.7z"/>
	</g>
	<g>
		<path class="st0" d="M144.4,43.6l-3.7-11.4v11.4h-6.4V18.1h6.4v10.3l3.7-10.3h6.4l-4.3,12.1l4.6,13.5L144.4,43.6L144.4,43.6z"/>
	</g>
	<g>
		<path class="st0" d="M179.7,18.1v25.5h-6V41c-0.2,0.7-0.7,1.4-1.6,1.9c-0.8,0.6-2,0.8-3.5,0.8c-1.9,0-3.3-0.6-4.3-1.7
			c-0.9-1.1-1.4-2.6-1.4-4.4V18.1h6.4v18.3c0,0.6,0.2,1.1,0.5,1.4c0.3,0.3,0.8,0.5,1.4,0.5s1.1-0.2,1.4-0.5c0.3-0.3,0.5-0.8,0.5-1.4
			V18.1H179.7z"/>
	</g>
	<g>
		<path class="st0" d="M206,25h-22.9v-6.9h29.5v0.3C212.6,22.1,209.6,25,206,25z"/>
	</g>
	<g>
		<path class="st1" d="M200.7,34.3h-17.6v-6.9h24.2v0.3C207.3,31.4,204.3,34.3,200.7,34.3z"/>
	</g>
	<g>
		<path class="st0" d="M195.2,43.6h-12.1v-6.9h18.7V37C201.8,40.7,198.8,43.6,195.2,43.6z"/>
	</g>
	<g>
		<path class="st0" d="M14.2,18.4v-0.3h29.5V25H20.8C17.1,25,14.2,22,14.2,18.4z"/>
	</g>
	<g>
		<path class="st1" d="M19.5,27.7v-0.3h24.2v6.9H26.1C22.4,34.3,19.5,31.3,19.5,27.7z"/>
	</g>
	<g>
		<path class="st0" d="M25,37v-0.3h18.7v6.9H31.6C28,43.6,25,40.6,25,37z"/>
	</g>
	<path class="st0" d="M84.9,8.3L84.9,8.3c-3.6,0-6.5,2.9-6.5,6.5h6.5v28.8h6.4V8.3H84.9z"/>
	<path class="st0" d="M160.4,8.3L160.4,8.3H154v35.3h6.4V14.9v-0.1h6.6C167,11.2,164,8.3,160.4,8.3z"/>
	<g>
		<g>
			<path class="st1" d="M53.3,59.8c0,1-0.3,1.7-0.9,2.2c-0.6,0.5-1.4,0.8-2.4,0.8c-1,0-1.8-0.3-2.4-0.8c-0.6-0.5-0.9-1.2-0.9-2.2
				v-4.5c0-1,0.3-1.7,0.9-2.2c0.6-0.5,1.4-0.8,2.4-0.8c1,0,1.8,0.3,2.4,0.8c0.6,0.5,0.9,1.2,0.9,2.2V59.8z M50.8,55.3
				c0-0.2-0.1-0.4-0.2-0.5c-0.2-0.1-0.3-0.2-0.6-0.2s-0.4,0.1-0.6,0.2s-0.2,0.3-0.2,0.5v4.5c0,0.2,0.1,0.4,0.2,0.5s0.3,0.2,0.6,0.2
				s0.4-0.1,0.6-0.2c0.2-0.1,0.2-0.3,0.2-0.5V55.3z"/>
			<path class="st1" d="M61.6,52.5h1l0.6-1.8H65v1.8h1.5v2.1H65v5.1c0,0.4,0.2,0.6,0.6,0.6c0.2,0,0.4,0,0.5-0.1
				c0.2,0,0.3-0.1,0.3-0.1l0.1-0.1v2.3c-0.4,0.2-0.9,0.3-1.5,0.3c-1.7,0-2.6-0.9-2.6-2.8v-5.2h-0.9V52.5z"/>
			<path class="st1" d="M81.6,59.8c0,1-0.3,1.7-0.9,2.2c-0.6,0.5-1.4,0.8-2.4,0.8c-1,0-1.8-0.3-2.4-0.8c-0.6-0.5-0.9-1.2-0.9-2.2
				v-4.5c0-1,0.3-1.7,0.9-2.2c0.6-0.5,1.4-0.8,2.4-0.8c1,0,1.8,0.3,2.4,0.8c0.6,0.5,0.9,1.2,0.9,2.2V59.8z M79.1,55.3
				c0-0.2-0.1-0.4-0.2-0.5c-0.2-0.1-0.3-0.2-0.6-0.2s-0.4,0.1-0.6,0.2s-0.2,0.3-0.2,0.5v4.5c0,0.2,0.1,0.4,0.2,0.5s0.3,0.2,0.6,0.2
				s0.4-0.1,0.6-0.2c0.2-0.1,0.2-0.3,0.2-0.5V55.3z"/>
			<path class="st1" d="M104.7,62.5l-1.4-4.5v4.5h-2.5V49.8h2.5v6.7l1.4-4h2.5l-1.7,4.7l1.8,5.3H104.7z"/>
			<path class="st1" d="M122.3,52.5v10h-2.4v-1c-0.1,0.3-0.3,0.5-0.6,0.8c-0.3,0.2-0.8,0.3-1.4,0.3c-0.7,0-1.3-0.2-1.7-0.7
				c-0.4-0.4-0.6-1-0.6-1.7v-7.7h2.5v7.2c0,0.2,0.1,0.4,0.2,0.6c0.1,0.1,0.3,0.2,0.6,0.2c0.2,0,0.4-0.1,0.6-0.2
				c0.1-0.1,0.2-0.3,0.2-0.6v-7.2H122.3z"/>
			<path class="st1" d="M131.1,55.2c0-1,0.3-1.7,0.9-2.2s1.4-0.7,2.4-0.7s1.8,0.2,2.4,0.7s0.9,1.2,0.9,2.2v7.3h-2.4v-0.8
				c0,0.1-0.1,0.2-0.1,0.3c-0.1,0.1-0.2,0.2-0.5,0.4c-0.3,0.2-0.6,0.2-1,0.2c-0.8,0-1.4-0.2-1.8-0.6c-0.4-0.4-0.7-1-0.7-1.8v-0.5
				c0-0.6,0.2-1.2,0.5-1.5c0.3-0.4,0.8-0.7,1.5-1l2.1-0.8v-1.2c0-0.4-0.2-0.6-0.7-0.6c-0.5,0-0.8,0.2-0.8,0.6V56h-2.5V55.2z
				 M133.6,60c0,0.4,0.3,0.7,0.8,0.7c0.5,0,0.8-0.2,0.8-0.7v-1.4l-0.9,0.4c-0.2,0.1-0.4,0.2-0.5,0.3c-0.1,0.1-0.1,0.3-0.1,0.6V60z"
				/>
			<path class="st1" d="M146.2,52.5h1v-0.1c0-1.9,1-2.9,3-2.9c0.3,0,0.6,0,0.9,0.1v2c-0.2,0-0.4,0-0.5,0c-0.6,0-0.9,0.3-0.9,0.8v0.2
				h1.2v2.1h-1.2v7.9h-2.5v-7.9h-1V52.5z"/>
			<path class="st1" d="M165.8,59.8c0,1-0.3,1.7-0.9,2.2c-0.6,0.5-1.4,0.8-2.4,0.8c-1,0-1.8-0.3-2.4-0.8c-0.6-0.5-0.9-1.2-0.9-2.2
				v-4.5c0-1,0.3-1.7,0.9-2.2c0.6-0.5,1.4-0.8,2.4-0.8c1,0,1.8,0.3,2.4,0.8c0.6,0.5,0.9,1.2,0.9,2.2V59.8z M161.9,51.6h-1.6V50h1.6
				V51.6z M163.3,55.3c0-0.2-0.1-0.4-0.2-0.5c-0.2-0.1-0.3-0.2-0.6-0.2s-0.4,0.1-0.6,0.2c-0.2,0.1-0.2,0.3-0.2,0.5v4.5
				c0,0.2,0.1,0.4,0.2,0.5c0.2,0.1,0.3,0.2,0.6,0.2s0.4-0.1,0.6-0.2c0.2-0.1,0.2-0.3,0.2-0.5V55.3z M164.8,51.6h-1.6V50h1.6V51.6z"
				/>
			<path class="st1" d="M179.2,55c-0.2-0.1-0.5-0.1-0.7-0.1c-0.4,0-0.6,0.1-0.8,0.3s-0.3,0.5-0.3,0.9v6.4h-2.5v-10h2.4v1.4
				c0-0.4,0.2-0.7,0.5-1c0.3-0.3,0.7-0.5,1.2-0.5c0.1,0,0.3,0,0.4,0V55z"/>
		</g>
	</g>
</g>
</svg>
